<?xml version="1.0" encoding="utf-8"?>
<!-- Generator: Adobe Illustrator 22.1.0, SVG Export Plug-In . SVG Version: 6.00 Build 0)  -->
<svg version="1.1" id="Calque_1" xmlns="http://www.w3.org/2000/svg" xmlns:xlink="http://www.w3.org/1999/xlink" x="0px" y="0px"
	 viewBox="0 0 500 500" style="enable-background:new 0 0 500 500;" xml:space="preserve">
<style type="text/css">
	.st0{display:none;}
	.st1{display:inline;}
	.st2{fill:#FFFFFF;}
	.st3{display:none;fill:#FFFFFF;stroke:#000000;stroke-miterlimit:10;}
	.st4{display:none;fill:none;stroke:#000000;stroke-miterlimit:10;}
	.st5{display:none;fill:#656565;}
	.st6{fill:#C32796;}
	.st7{fill:#2D29C1;}
	.st8{fill:#F90B2D;}
	.st9{fill:#F9F921;}
	.st10{fill:#0DF717;}
	.st11{fill:#0FF4E9;}
	.st12{fill:#8914EF;}
	.st13{fill:#F7760D;}
</style>
<g id="XMLID_1_" class="st0">
	<g class="st1">
		<circle class="st2" cx="250" cy="250" r="250"/>
	</g>
	<g class="st1">
	</g>
</g>
<line class="st3" x1="250.5" y1="250.5" x2="250.5" y2="0.5"/>
<line class="st4" x1="250.5" y1="250.5" x2="250.5" y2="500.5"/>
<line class="st5" x1="250.5" y1="250.5" x2="0.5" y2="250.5"/>
<line class="st3" x1="250.5" y1="250.5" x2="73.5" y2="73.5"/>
<line class="st4" x1="250.5" y1="250.5" x2="427.5" y2="73.5"/>
<line class="st5" x1="250.5" y1="250.5" x2="73.5" y2="427.5"/>
<g id="XMLID_2_">
	<g>
		<path class="st6" d="M250.5,250.5h250c-0.5,65.4-26.4,130.3-73.2,176.8L427,427L250.5,250.5z"/>
	</g>
	<g>
	</g>
</g>
<g id="XMLID_3_">
	<g>
		<path class="st7" d="M427.3,73c45.9,46.6,73.5,110.8,73.3,176.8l-0.5,0H250.5L427.3,73z"/>
	</g>
	<g>
	</g>
</g>
<g id="XMLID_4_">
	<g>
		<path class="st8" d="M249.8,249.6L73,72.8C119.6,26.9,183.9-0.6,249.8-0.5l0,0.5V249.6z"/>
	</g>
	<g>
	</g>
</g>
<g id="XMLID_5_" class="st0">
	<g class="st1">
		<path class="st7" d="M262.2,139.6L99.9,329.7c-49.4-42.9-81.9-104.7-86.9-170.5l0.5,0L262.2,139.6z"/>
	</g>
	<g class="st1">
	</g>
</g>
<g id="XMLID_6_">
	<g>
		<path class="st9" d="M250.6,249.8L73.8,73C27.9,119.6,0.4,183.9,0.5,249.8l0.5,0H250.6z"/>
	</g>
	<g>
	</g>
</g>
<g id="XMLID_7_">
	<g>
		<path class="st10" d="M250.3,249.6L427.1,72.8C380.5,26.9,316.3-0.6,250.3-0.5l0,0.5V249.6z"/>
	</g>
	<g>
	</g>
</g>
<g id="XMLID_8_">
	<g>
		<path class="st11" d="M427.1,427.3c-46.6,45.9-110.8,73.5-176.8,73.3v-0.5V250.5L427.1,427.3z"/>
	</g>
	<g>
	</g>
</g>
<g id="XMLID_9_" class="st0">
	<g class="st1">
		<path class="st10" d="M222.3,423.6l176.8-176.8c-46.6-45.9-110.8-73.5-176.8-73.3v0.5V423.6z"/>
	</g>
	<g class="st1">
	</g>
</g>
<g id="XMLID_10_">
	<g>
		<path class="st12" d="M250.6,250.3L73.8,427.1C27.9,380.5,0.4,316.3,0.5,250.3H1H250.6z"/>
	</g>
	<g>
	</g>
</g>
<g id="XMLID_11_">
	<g>
		<path class="st13" d="M74,427.3c46.6,45.9,110.8,73.5,176.8,73.3l0-0.5V250.5L74,427.3z"/>
	</g>
	<g>
	</g>
</g>
</svg>
